/* XPM */
<<<<<<< HEAD
static char * close_pressed_xpm[] = {
"16 16 6 1",
" 	c None",
".	c #2B303B",
"+	c #96B5B4",
"@	c #768D8F",
"#	c #404A53",
"$	c #55656B",
"................",
"................",
"................",
"................",
"....+@#..#@+....",
"....@+@$$@+@....",
"....#@+@@+@#....",
".....$@++@$.....",
".....$@++@$.....",
"....#@+@@+@#....",
"....@+@$$@+@....",
"....+@#..#@+....",
"................",
"................",
"................",
"................"};
=======
static char * close_prelight_xpm[] = {
"24 24 3 1",
" 	c None",
".	c #2D2D2D",
"+	c #D64937 s active_color_1",
"........................",
"........................",
"........................",
"........................",
"........................",
"........................",
"........................",
"........................",
"........++....++........",
"........+++..+++........",
".........++++++.........",
"..........++++..........",
"..........++++..........",
".........++++++.........",
"........+++..+++........",
"........++....++........",
"........................",
"........................",
"........................",
"........................",
"........................",
"........................",
"........................",
"........................"};
>>>>>>> c736089e4116f4e022ee271f364925cb045229fc
